<svg viewBox="0 0 1792 1024" xmlns="http://www.w3.org/2000/svg">
  <!-- Sky background -->
  <rect width="1792" height="1024" fill="#87CEEB"/>

  <!-- Trees in background -->
  <g id="trees">
    <!-- Tree 1 -->
    <path d="M 200 200 L 150 350 L 100 350 L 150 450 L 100 450 L 200 600 L 300 450 L 250 450 L 300 350 L 250 350 Z" fill="#2d5016"/>
    <rect x="185" y="600" width="30" height="100" fill="#5c3317"/>

    <!-- Tree 2 -->
    <path d="M 400 150 L 350 300 L 300 300 L 350 400 L 300 400 L 400 550 L 500 400 L 450 400 L 500 300 L 450 300 Z" fill="#3d6b1f"/>
    <rect x="385" y="550" width="30" height="100" fill="#5c3317"/>

    <!-- Tree 3 (right side) -->
    <path d="M 1400 180 L 1350 320 L 1300 320 L 1350 420 L 1300 420 L 1400 570 L 1500 420 L 1450 420 L 1500 320 L 1450 320 Z" fill="#2d5016"/>
    <rect x="1385" y="570" width="30" height="100" fill="#5c3317"/>

    <!-- Tree 4 (right) -->
    <path d="M 1600 150 L 1550 300 L 1500 300 L 1550 400 L 1500 400 L 1600 550 L 1700 400 L 1650 400 L 1700 300 L 1650 300 Z" fill="#3d6b1f"/>
    <rect x="1585" y="550" width="30" height="100" fill="#5c3317"/>
  </g>

  <!-- Ground -->
  <rect y="650" width="1792" height="374" fill="#6b8e23"/>

  <!-- Tree stumps -->
  <ellipse cx="900" cy="720" rx="45" ry="20" fill="#8b6914"/>
  <ellipse cx="900" cy="700" rx="45" ry="20" fill="#a0826d"/>
  <path d="M 855 700 Q 875 680 900 700 Q 925 680 945 700" stroke="#6b4423" stroke-width="3" fill="none"/>

  <ellipse cx="1100" cy="740" rx="40" ry="18" fill="#8b6914"/>
  <ellipse cx="1100" cy="722" rx="40" ry="18" fill="#a0826d"/>
  <path d="M 1065 722 Q 1080 705 1100 722 Q 1120 705 1135 722" stroke="#6b4423" stroke-width="2.5" fill="none"/>

  <ellipse cx="750" cy="760" rx="38" ry="17" fill="#8b6914"/>
  <ellipse cx="750" cy="743" rx="38" ry="17" fill="#a0826d"/>

  <!-- Logs -->
  <ellipse cx="820" cy="790" rx="80" ry="25" fill="#8b6914"/>
  <ellipse cx="820" cy="765" rx="80" ry="25" fill="#a0826d"/>
  <line x1="740" y1="765" x2="740" y2="790" stroke="#6b4423" stroke-width="2"/>
  <line x1="900" y1="765" x2="900" y2="790" stroke="#6b4423" stroke-width="2"/>

  <!-- ORC (big green character on left) -->
  <g id="orc">
    <!-- Body -->
    <ellipse cx="350" cy="650" rx="90" ry="140" fill="#4a7c2c"/>
    <ellipse cx="350" cy="550" rx="70" ry="90" fill="#4a7c2c"/>

    <!-- Arms -->
    <ellipse cx="270" cy="600" rx="35" ry="80" fill="#4a7c2c" transform="rotate(-20 270 600)"/>
    <ellipse cx="430" cy="600" rx="35" ry="80" fill="#4a7c2c" transform="rotate(20 430 600)"/>

    <!-- Hands -->
    <ellipse cx="255" cy="670" rx="28" ry="22" fill="#3d6b1f"/>
    <ellipse cx="445" cy="670" rx="28" ry="22" fill="#3d6b1f"/>

    <!-- Head -->
    <ellipse cx="350" cy="400" rx="85" ry="95" fill="#4a7c2c"/>

    <!-- Ears -->
    <path d="M 280 380 Q 265 380 260 400 Q 265 420 280 420 Z" fill="#3d6b1f"/>
    <path d="M 420 380 Q 435 380 440 400 Q 435 420 420 420 Z" fill="#3d6b1f"/>

    <!-- Eyes -->
    <ellipse cx="320" cy="390" rx="20" ry="25" fill="#fff"/>
    <ellipse cx="380" cy="390" rx="20" ry="25" fill="#fff"/>
    <circle cx="318" cy="395" r="12" fill="#000"/>
    <circle cx="378" cy="395" r="12" fill="#000"/>
    <line x1="308" y1="385" x2="328" y2="380" stroke="#000" stroke-width="4" stroke-linecap="round"/>
    <line x1="368" y1="380" x2="388" y2="385" stroke="#000" stroke-width="4" stroke-linecap="round"/>

    <!-- Nose -->
    <ellipse cx="350" cy="420" rx="15" ry="20" fill="#3d6b1f"/>

    <!-- Mouth (frown) -->
    <path d="M 320 450 Q 350 440 380 450" stroke="#2d4a1a" stroke-width="5" fill="none" stroke-linecap="round"/>

    <!-- Belt -->
    <rect x="280" y="620" width="140" height="25" fill="#6b4423" rx="5"/>
    <rect x="340" y="615" width="35" height="35" fill="#8b6914" rx="3"/>
    <text x="357" y="640" font-family="Arial" font-size="24" fill="#6b4423" font-weight="bold" text-anchor="middle">ⓔ</text>

    <!-- Legs -->
    <rect x="310" y="760" width="40" height="120" fill="#4a7c2c" rx="8"/>
    <rect x="370" y="760" width="40" height="120" fill="#4a7c2c" rx="8"/>

    <!-- Boots -->
    <ellipse cx="330" cy="890" rx="30" ry="20" fill="#3d2817"/>
    <ellipse cx="390" cy="890" rx="30" ry="20" fill="#3d2817"/>
  </g>

  <!-- Small IMPs (3 little green workers) -->
  <!-- IMP 1 (left front) -->
  <g id="imp1">
    <ellipse cx="280" cy="820" rx="35" ry="45" fill="#5a8c3c"/>
    <ellipse cx="280" cy="770" rx="30" ry="35" fill="#5a8c3c"/>
    <path d="M 260 760 Q 255 755 255 765 Q 260 770 265 765 Z" fill="#4a7c2c"/>
    <path d="M 300 760 Q 305 755 305 765 Q 300 770 295 765 Z" fill="#4a7c2c"/>
    <ellipse cx="272" cy="768" rx="6" ry="8" fill="#000"/>
    <ellipse cx="288" cy="768" rx="6" ry="8" fill="#000"/>
    <path d="M 272 778 Q 280 780 288 778" stroke="#3d5a2a" stroke-width="2" fill="none"/>
    <rect x="265" cy="860" width="12" height="30" fill="#5a8c3c"/>
    <rect x="283" cy="860" width="12" height="30" fill="#5a8c3c"/>
    <!-- Tool (hammer) -->
    <line x1="250" y1="810" x2="230" y2="790" stroke="#6b4423" stroke-width="4"/>
    <rect x="225" y="782" width="15" height="10" fill="#696969"/>
  </g>

  <!-- IMP 2 (middle) -->
  <g id="imp2">
    <ellipse cx="360" cy="840" rx="32" ry="42" fill="#5a8c3c"/>
    <ellipse cx="360" cy="795" rx="28" ry="32" fill="#5a8c3c"/>
    <path d="M 342 787 Q 338 782 338 790 Q 342 795 346 790 Z" fill="#4a7c2c"/>
    <path d="M 378 787 Q 382 782 382 790 Q 378 795 374 790 Z" fill="#4a7c2c"/>
    <ellipse cx="353" cy="793" rx="5" ry="7" fill="#000"/>
    <ellipse cx="367" cy="793" rx="5" ry="7" fill="#000"/>
    <path d="M 353 800 Q 360 803 367 800" stroke="#3d5a2a" stroke-width="2" fill="none"/>
    <rect x="347" cy="875" width="11" height="28" fill="#5a8c3c"/>
    <rect x="362" cy="875" width="11" height="28" fill="#5a8c3c"/>
  </g>

  <!-- IMP 3 (right, with axe) -->
  <g id="imp3">
    <ellipse cx="440" cy="835" rx="33" ry="43" fill="#5a8c3c"/>
    <ellipse cx="440" cy="788" rx="29" ry="33" fill="#5a8c3c"/>
    <path d="M 421 780 Q 417 775 417 783 Q 421 788 425 783 Z" fill="#4a7c2c"/>
    <path d="M 459 780 Q 463 775 463 783 Q 459 788 455 783 Z" fill="#4a7c2c"/>
    <ellipse cx="432" cy="786" rx="5" ry="7" fill="#000"/>
    <ellipse cx="448" cy="786" rx="5" ry="7" fill="#000"/>
    <path d="M 432 793 Q 440 796 448 793" stroke="#3d5a2a" stroke-width="2" fill="none"/>
    <rect x="426" cy="870" width="11" height="29" fill="#5a8c3c"/>
    <rect x="442" cy="870" width="11" height="29" fill="#5a8c3c"/>
    <!-- Axe -->
    <line x1="470" y1="815" x2="495" y2="800" stroke="#6b4423" stroke-width="4"/>
    <path d="M 492 792 L 505 795 L 508 808 L 495 805 Z" fill="#696969"/>
  </g>

  <!-- El Presidente (right side) -->
  <g id="el-presidente">
    <!-- Body -->
    <ellipse cx="1200" cy="680" rx="110" ry="150" fill="#f5deb3"/>

    <!-- Arms -->
    <ellipse cx="1100" cy="650" rx="40" ry="90" fill="#f5deb3" transform="rotate(-25 1100 650)"/>
    <ellipse cx="1300" cy="650" rx="40" ry="90" fill="#f5deb3" transform="rotate(25 1300 650)"/>

    <!-- Hands -->
    <ellipse cx="1080" cy="720" rx="30" ry="25" fill="#d4a574"/>
    <ellipse cx="1320" cy="720" rx="30" ry="25" fill="#d4a574"/>

    <!-- Shirt -->
    <path d="M 1110 580 L 1290 580 L 1310 680 L 1310 780 L 1090 780 L 1090 680 Z" fill="#fff"/>
    <!-- Collar -->
    <path d="M 1150 580 L 1170 620 L 1200 600 L 1230 620 L 1250 580" stroke="#ddd" stroke-width="3" fill="none"/>
    <!-- Buttons -->
    <circle cx="1200" cy="620" r="8" fill="#444"/>
    <circle cx="1200" cy="670" r="8" fill="#444"/>
    <circle cx="1200" cy="720" r="8" fill="#444"/>

    <!-- Belt -->
    <rect x="1110" y="800" width="180" height="30" fill="#2c1810" rx="5"/>
    <rect x="1185" y="795" width="40" height="40" fill="#4a4a4a" rx="3"/>

    <!-- Pants -->
    <rect x="1150" y="825" width="50" height="130" fill="#36454f" rx="8"/>
    <rect x="1200" y="825" width="50" height="130" fill="#36454f" rx="8"/>

    <!-- Shoes -->
    <ellipse cx="1175" cy="960" rx="35" ry="22" fill="#1c1c1c"/>
    <ellipse cx="1225" cy="960" rx="35" ry="22" fill="#1c1c1c"/>

    <!-- Head -->
    <ellipse cx="1200" cy="400" rx="95" ry="105" fill="#d4a574"/>

    <!-- Hat -->
    <ellipse cx="1200" cy="290" rx="110" ry="35" fill="#2c1810"/>
    <rect x="1120" y="270" width="160" height="60" fill="#2c1810" rx="15"/>
    <ellipse cx="1200" cy="270" rx="80" ry="25" fill="#3d2817"/>

    <!-- Glasses -->
    <ellipse cx="1160" cy="400" rx="35" ry="32" fill="none" stroke="#2c1810" stroke-width="6"/>
    <ellipse cx="1240" cy="400" rx="35" ry="32" fill="none" stroke="#2c1810" stroke-width="6"/>
    <line x1="1195" y1="400" x2="1205" y2="400" stroke="#2c1810" stroke-width="6"/>
    <line x1="1125" y1="400" x2="1100" y2="395" stroke="#2c1810" stroke-width="5"/>
    <line x1="1275" y1="400" x2="1300" y2="395" stroke="#2c1810" stroke-width="5"/>

    <!-- Eyes (half-closed, content) -->
    <path d="M 1140 395 Q 1160 405 1180 395" stroke="#000" stroke-width="5" fill="none" stroke-linecap="round"/>
    <path d="M 1220 395 Q 1240 405 1260 395" stroke="#000" stroke-width="5" fill="none" stroke-linecap="round"/>

    <!-- Mustache -->
    <ellipse cx="1160" cy="440" rx="45" ry="18" fill="#2c1810"/>
    <ellipse cx="1240" cy="440" rx="45" ry="18" fill="#2c1810"/>
    <path d="M 1115 435 Q 1100 425 1095 430" stroke="#2c1810" stroke-width="8" fill="none" stroke-linecap="round"/>
    <path d="M 1285 435 Q 1300 425 1305 430" stroke="#2c1810" stroke-width="8" fill="none" stroke-linecap="round"/>

    <!-- Nose -->
    <ellipse cx="1200" cy="415" rx="18" ry="25" fill="#c49565"/>

    <!-- Mouth (slight smile) -->
    <path d="M 1170 470 Q 1200 478 1230 470" stroke="#8b6347" stroke-width="4" fill="none" stroke-linecap="round"/>

    <!-- Pipe -->
    <ellipse cx="1100" cy="480" rx="20" ry="25" fill="#6b4423" transform="rotate(-30 1100 480)"/>
    <rect x="1085" y="455" width="12" height="50" fill="#8b6914" transform="rotate(-30 1091 480)"/>
    <ellipse cx="1091" cy="455" rx="14" ry="8" fill="#5c3a1a"/>

    <!-- Smoke from pipe -->
    <path d="M 1070 445 Q 1060 430 1065 415 Q 1075 410 1070 395" stroke="#d3d3d3" stroke-width="3" fill="none" stroke-linecap="round" opacity="0.6"/>
    <circle cx="1065" cy="415" r="8" fill="#d3d3d3" opacity="0.4"/>
    <circle cx="1070" cy="395" r="10" fill="#d3d3d3" opacity="0.3"/>
  </g>
</svg>